<svg width="12" height="10" viewBox="0 0 12 10" fill="none" xmlns="http://www.w3.org/2000/svg">
<path d="M11.8538 5.35414L7.35375 9.85414C7.28382 9.92415 7.1947 9.97183 7.09765 9.99116C7.00061 10.0105 6.90002 10.0006 6.80861 9.9627C6.71719 9.92483 6.63908 9.86068 6.58414 9.77839C6.5292 9.69609 6.49992 9.59934 6.5 9.50039V5.50039H0.5C0.367392 5.50039 0.240215 5.44772 0.146447 5.35395C0.0526785 5.26018 0 5.133 0 5.00039C0 4.86779 0.0526785 4.74061 0.146447 4.64684C0.240215 4.55307 0.367392 4.50039 0.5 4.50039H6.5V0.500394C6.49992 0.401446 6.5292 0.3047 6.58414 0.222403C6.63908 0.140106 6.71719 0.0759587 6.80861 0.0380825C6.90002 0.000206247 7.00061 -0.00969606 7.09765 0.00962914C7.1947 0.0289543 7.28382 0.0766381 7.35375 0.146644L11.8538 4.64664C11.9002 4.69308 11.9371 4.74822 11.9623 4.80892C11.9874 4.86962 12.0004 4.93469 12.0004 5.00039C12.0004 5.0661 11.9874 5.13117 11.9623 5.19186C11.9371 5.25256 11.9002 5.30771 11.8538 5.35414Z" fill="#6BD96B"/>
</svg>
