<svg width="689" height="134" viewBox="0 0 689 134" fill="none" xmlns="http://www.w3.org/2000/svg">
<path d="M599.049 129.481L633.462 84.7859L601.094 41.7962L623.07 42.1374L644.706 70.2854L667.023 41.9668H689L655.439 84.7859L688.318 129.481H666.342L644.195 99.1158L621.026 129.481H599.049Z" fill="white"/>
<path d="M581.4 129.651C575.267 129.651 571.179 124.704 571.179 118.563V116.174C563.342 129.14 547.499 134.769 534.21 133.916C498.946 132.21 496.561 78.3025 546.817 78.8143L571.008 79.1555V71.9906C571.008 59.3666 564.024 52.884 550.906 52.884C538.129 52.884 530.974 58.8548 530.974 70.4552L513.256 70.2846C513.256 48.1074 530.633 38.7247 551.417 38.7247C572.371 38.7247 589.407 48.1074 589.407 71.4788V114.81C589.407 118.392 591.622 120.61 595.029 120.61H595.711V129.651H581.4ZM542.388 118.733C553.972 117.88 571.008 110.886 571.008 95.7031V91.9501L547.328 91.7795C520.582 91.4383 520.582 120.098 542.388 118.733Z" fill="white"/>
<path d="M364.74 41.9661V56.4666C371.554 44.0132 381.094 37.36 394.042 37.1895C409.545 37.1895 420.618 43.5014 426.581 55.7842C433.736 44.525 445.15 37.5306 456.564 37.5306C483.14 37.1895 496.599 51.6899 496.599 82.738V129.651H478.2V82.9086C478.2 64.4845 471.556 53.0547 454.69 53.0547C435.951 53.0547 431.521 66.0198 431.521 82.2263V129.651H413.122V82.0557C413.122 63.1197 406.649 52.2017 389.101 52.2017C373.939 52.2017 364.74 65.508 364.74 82.9086V129.481L346.341 129.31V41.9661H364.74Z" fill="white"/>
<path d="M257.234 129.651V8.7002H275.633V79.8379L314.135 42.1366H336.623L302.039 75.9142L336.452 129.481H314.135L288.41 89.3911L275.633 101.844V129.651H257.234Z" fill="white"/>
<path d="M226.795 99.1149L243.661 103.892C237.528 118.392 225.943 132.04 202.945 132.04C170.917 132.04 158.821 107.133 158.821 85.1262C158.821 63.1196 170.917 38.2129 202.945 38.2129C226.625 38.2129 238.209 51.5192 243.831 67.5551L226.454 71.8199C222.877 61.5843 217.766 53.2252 202.945 53.2252C187.271 53.2252 176.879 65.1667 176.879 85.1262C176.879 105.086 186.931 117.027 202.945 117.027C216.914 117.027 223.047 107.645 226.795 99.1149Z" fill="white"/>
<path d="M126.772 18.7655C126.772 15.3536 129.157 9.38281 137.335 9.38281C145.682 9.38281 148.067 15.183 148.067 18.7655C148.067 22.348 145.682 28.1481 137.335 28.1481C128.987 28.1481 126.772 22.1774 126.772 18.7655ZM128.305 129.481V41.1133H146.704V129.481H128.305Z" fill="white"/>
<path d="M96.0269 129.481V0H114.426V129.481H96.0269Z" fill="white"/>
<path d="M67.9738 99.1149L84.8395 103.892C78.7066 118.392 67.122 132.04 44.1234 132.04C12.0956 132.04 0 107.133 0 85.1262C0 63.1196 12.0956 38.2129 44.1234 38.2129C67.8035 38.2129 79.388 51.5192 85.0099 67.5551L67.6331 71.8199C64.0556 61.5843 58.9447 53.2252 44.1234 53.2252C28.4502 53.2252 18.0582 65.1667 18.0582 85.1262C18.0582 105.086 28.1095 117.027 44.1234 117.027C58.0929 117.027 64.2259 107.645 67.9738 99.1149Z" fill="white"/>
</svg>
