<svg width="33" height="35" viewBox="0 0 33 35" fill="none" xmlns="http://www.w3.org/2000/svg">
<path d="M31.2 7.83291L17.45 0.309476C17.0826 0.10648 16.6697 0 16.25 0C15.8303 0 15.4174 0.10648 15.05 0.309476L1.3 7.83604C0.907326 8.05089 0.579536 8.36723 0.350862 8.75202C0.122188 9.1368 0.00101603 9.57593 0 10.0235V24.9673C0.00101603 25.4149 0.122188 25.854 0.350862 26.2388C0.579536 26.6236 0.907326 26.9399 1.3 27.1548L15.05 34.6814C15.4174 34.8843 15.8303 34.9908 16.25 34.9908C16.6697 34.9908 17.0826 34.8843 17.45 34.6814L31.2 27.1548C31.5927 26.9399 31.9205 26.6236 32.1491 26.2388C32.3778 25.854 32.499 25.4149 32.5 24.9673V10.0251C32.4998 9.5767 32.379 9.13659 32.1503 8.75091C31.9216 8.36522 31.5934 8.04815 31.2 7.83291ZM16.25 2.49698L28.8031 9.37198L16.25 16.247L3.69688 9.37198L16.25 2.49698ZM2.5 11.5595L15 18.4001V31.8048L2.5 24.9689V11.5595ZM17.5 31.8048V18.4064L30 11.5595V24.9626L17.5 31.8048Z" fill="#9725C4"/>
</svg>
