<svg width="100" height="12" viewBox="0 0 100 12" fill="none" xmlns="http://www.w3.org/2000/svg">
<path d="M0 11.98V5.17138H12.8168V6.82862H1.7753V11.98H0ZM0 0H14.8952V1.65724H0V0Z" fill="white"/>
<path d="M19.4588 0V7.60732C19.4588 9.10483 20.8011 10.3428 22.4248 10.3428H29.8724C31.5178 10.3428 32.8385 9.10483 32.8385 7.60732V0H34.6354V7.60732C34.6354 10.0233 32.4921 11.98 29.8724 11.98H22.4248C19.8052 11.98 17.6835 10.0233 17.6835 7.60732V0H19.4588Z" fill="white"/>
<path d="M50.0797 5.81032C51.3137 5.81032 52.3313 4.87188 52.3313 3.75374C52.3313 3.73378 52.3313 3.73378 52.3313 3.73378C52.3313 2.59567 51.3354 1.65724 50.0797 1.65724H38.1072V0H50.0797C52.3096 0.0199665 54.1282 1.6772 54.1282 3.73378C54.1282 5.43095 52.8509 6.92845 51.0539 7.34775L50.9673 7.36772C50.924 7.36772 50.8807 7.38769 50.8374 7.38769L54.2798 12H51.9849L48.5858 7.44759H39.8825V12H38.1072V5.81032H50.0797Z" fill="white"/>
<path d="M57.7487 0H59.524V11.98H57.7487V0Z" fill="white"/>
<path d="M62.992 4.39268C62.992 1.97671 65.1137 0 67.7334 0H76.0686C78.6883 0 80.8316 1.97671 80.8316 4.39268V7.60732C80.8316 10.0233 78.6883 11.98 76.0686 11.98H67.7334C65.1137 11.98 62.992 10.0233 62.992 7.60732V4.39268ZM67.7334 10.3428H76.0686C77.714 10.3428 79.0347 9.10483 79.0347 7.60732V4.39268C79.0347 2.89517 77.714 1.65724 76.0686 1.65724H67.7334C66.1096 1.65724 64.7673 2.89517 64.7673 4.39268V7.60732C64.7673 9.10483 66.1096 10.3428 67.7334 10.3428Z" fill="white"/>
<path d="M84.3037 0H87.01L98.2247 10.5225V0H100V11.98H97.2721L86.079 1.47754V11.98H84.3037V0Z" fill="white"/>
</svg>
