<svg width="122" height="36" viewBox="0 0 122 36" fill="none" xmlns="http://www.w3.org/2000/svg">
<path d="M111.227 19.8291H108.031V0.127459L116.284 0.00335409C117.835 -0.0380136 119.004 0.303275 119.79 1.02722C120.597 1.75116 121 2.82674 121 4.25394V8.22529C121 9.11471 120.824 9.89036 120.472 10.5523C120.121 11.1935 119.593 11.6899 118.89 12.0415C118.187 12.3931 117.318 12.569 116.284 12.569H110.606L111.196 12.0105L111.227 19.8291ZM111.196 2.17519V10.3351L110.699 9.80763H117.339C117.608 9.80763 117.742 9.67318 117.742 9.40429V3.16803C117.742 2.89913 117.608 2.76468 117.339 2.76468H110.73L111.196 2.17519Z" fill="#6BD96B"/>
<path d="M99.0005 8.19425L102.724 0.127441H105.919L102.506 7.26346C102.217 7.8633 101.958 8.35972 101.731 8.75272C101.524 9.14572 101.286 9.44563 101.017 9.65248C100.769 9.85932 100.428 10.0144 99.9934 10.1179C99.5797 10.2006 99.0315 10.242 98.349 10.242H97.1389C96.2288 10.242 95.5256 10.1592 95.0292 9.99376C94.5327 9.80761 94.1294 9.49735 93.8191 9.06298C93.5296 8.62861 93.2193 8.02877 92.8884 7.26346L89.6306 0.127441H93.0125L96.6425 8.19425C96.6839 8.29767 96.7253 8.3804 96.7666 8.44246C96.8287 8.48382 96.9114 8.50451 97.0148 8.50451H98.5972C98.7626 8.50451 98.8971 8.40109 99.0005 8.19425ZM98.2559 9.49735C99.1867 9.49735 99.8796 9.59042 100.335 9.77658C100.81 9.96274 101.193 10.273 101.483 10.7074C101.793 11.1417 102.145 11.7416 102.538 12.5069L106.261 19.8291H102.848L98.8454 11.5761C98.7833 11.452 98.7316 11.3693 98.6903 11.3279C98.6489 11.2865 98.5661 11.2658 98.442 11.2658H96.8907C96.7666 11.2658 96.6736 11.2865 96.6115 11.3279C96.5701 11.3693 96.5184 11.452 96.4564 11.5761L92.485 19.8291H89.2583L92.8884 12.5069C93.1986 11.9277 93.4572 11.4417 93.664 11.0487C93.8915 10.6557 94.1294 10.3454 94.3776 10.1179C94.6465 9.89034 94.9878 9.73521 95.4015 9.65248C95.8358 9.54906 96.3943 9.49735 97.0769 9.49735H98.2559Z" fill="#6BD96B"/>
<path d="M69.291 18.4161C68.8287 17.9974 68.7066 17.631 68.9247 17.317L69.605 16.3358C69.8405 15.9956 70.2199 16.0217 70.7433 16.4143C71.4324 16.9289 72.1476 17.3519 72.889 17.6834C73.6391 18.0148 74.5463 18.1806 75.6104 18.1806C76.3954 18.1806 77.0583 18.0628 77.5991 17.8273C78.1399 17.5918 78.5717 17.256 78.8944 16.8199C79.2259 16.375 79.3916 15.8386 79.3916 15.2106C79.3916 14.757 79.3218 14.3383 79.1822 13.9545C79.0514 13.562 78.8377 13.2349 78.5411 12.9733C78.2446 12.7116 77.9349 12.5066 77.6122 12.3583C77.0801 12.1141 76.282 11.8306 75.2179 11.5079C74.1625 11.1852 73.2379 10.8363 72.4442 10.4612C71.6591 10.0861 71.0311 9.63256 70.5601 9.1005C70.0978 8.56843 69.7882 8.02327 69.6312 7.46504C69.4829 6.89808 69.4088 6.25262 69.4088 5.52866C69.4088 4.42091 69.7315 3.4658 70.3769 2.66334C71.0224 1.86087 71.8118 1.3288 72.7451 1.06713C73.6871 0.805458 74.6422 0.674622 75.6104 0.674622C76.7182 0.674622 77.682 0.818542 78.5019 1.10638C79.3218 1.39422 80.0545 1.76929 80.7 2.23158C81.1535 2.55431 81.2582 2.89448 81.014 3.2521L80.3467 4.20721C80.1461 4.49505 79.7536 4.43399 79.1692 4.02404C78.7243 3.71003 78.1792 3.41783 77.5337 3.14743C76.897 2.86831 76.2646 2.72876 75.6366 2.72876C74.8341 2.72876 74.1668 2.8247 73.6348 3.0166C73.1027 3.19977 72.684 3.51377 72.3787 3.95862C72.0735 4.40346 71.9208 4.91809 71.9208 5.50249C71.9208 5.86883 71.9557 6.20901 72.0255 6.52302C72.0953 6.8283 72.2741 7.14231 72.5619 7.46504C72.8498 7.78777 73.1987 8.03636 73.6086 8.21081C74.1581 8.44631 75.0086 8.72543 76.1599 9.04816C77.32 9.36217 78.3318 9.75032 79.1953 10.2126C79.9978 10.64 80.5735 11.0892 80.9224 11.5602C81.28 12.0225 81.5548 12.5284 81.7466 13.0779C81.9473 13.6187 82.0476 14.2293 82.0476 14.9096C82.0476 16.1482 81.7292 17.1818 81.0925 18.0105C80.4557 18.8391 79.7012 19.4148 78.829 19.7375C77.9567 20.0602 76.8621 20.2216 75.545 20.2216C73.9662 20.2216 72.6579 20.0384 71.6199 19.6721C70.5819 19.3057 69.8056 18.8871 69.291 18.4161Z" fill="white"/>
<path d="M50.6075 19.8291C50.154 19.8291 50.0362 19.5413 50.2543 18.9656L56.7699 1.86524C56.9705 1.33317 57.2584 1.06714 57.6335 1.06714H59.4652C59.8402 1.06714 60.1281 1.33317 60.3287 1.86524L66.8443 18.9656C67.0624 19.5413 66.9447 19.8291 66.4911 19.8291H65.1566C64.6943 19.8291 64.3803 19.6154 64.2145 19.188L62.5791 14.8573H54.5195L52.8841 19.188C52.7184 19.6154 52.4044 19.8291 51.9421 19.8291H50.6075ZM55.3438 12.7116H61.7548L59.753 7.47813C59.5698 6.98967 59.3867 6.44888 59.2035 5.85576C59.029 5.26263 58.8197 4.42092 58.5755 3.33061H58.5231C58.2789 4.42092 58.0652 5.26263 57.882 5.85576C57.7076 6.44888 57.5288 6.98967 57.3456 7.47813L55.3438 12.7116Z" fill="white"/>
<path d="M32.1858 10.4481C32.1858 7.39526 32.9403 5.00531 34.4493 3.27827C35.967 1.5425 38.1432 0.674622 40.978 0.674622C42.6353 0.674622 44.0047 0.958101 45.0863 1.52506C46.1679 2.0833 46.9442 2.85087 47.4152 3.82778C47.6594 4.33368 47.6201 4.68258 47.2974 4.87448L46.2638 5.47632C45.9149 5.67694 45.6053 5.51121 45.3349 4.97914C45.047 4.42963 44.576 3.91501 43.9218 3.43527C43.2676 2.95554 42.33 2.71567 41.1088 2.71567C38.9282 2.71567 37.3408 3.39602 36.3464 4.75672C35.3608 6.1087 34.8679 8.00583 34.8679 10.4481C34.8679 12.8904 35.3608 14.7919 36.3464 16.1526C37.3408 17.5046 38.9282 18.1806 41.1088 18.1806C42.3649 18.1806 43.368 17.8927 44.1181 17.317C44.8769 16.7414 45.4265 16.1395 45.7666 15.5115C46.037 15.0056 46.351 14.8529 46.7086 15.0536L47.7946 15.6685C48.1086 15.8517 48.1348 16.2006 47.8731 16.7152C47.3585 17.7183 46.5211 18.5556 45.361 19.2272C44.2009 19.8902 42.7399 20.2216 40.978 20.2216C38.1432 20.2216 35.967 19.3581 34.4493 17.631C32.9403 15.8953 32.1858 13.501 32.1858 10.4481Z" fill="white"/>
<path d="M14.863 12.6723V1.78674C14.863 1.30701 15.0811 1.06714 15.5172 1.06714H16.7209C17.157 1.06714 17.3751 1.30701 17.3751 1.78674V12.2798C17.3751 14.7221 17.7196 16.3183 18.4087 17.0684C19.1065 17.8099 20.2404 18.1806 21.8105 18.1806C23.3805 18.1806 24.5101 17.8099 25.1991 17.0684C25.8969 16.3183 26.2458 14.7221 26.2458 12.2798V1.78674C26.2458 1.30701 26.4639 1.06714 26.9 1.06714H28.1037C28.5398 1.06714 28.7579 1.30701 28.7579 1.78674V12.6723C28.7579 15.4374 28.1211 17.3868 26.8477 18.5207C25.5829 19.6547 23.9038 20.2216 21.8105 20.2216C19.7171 20.2216 18.0336 19.6547 16.7602 18.5207C15.4954 17.3868 14.863 15.4374 14.863 12.6723Z" fill="white"/>
<path d="M0.654183 19.8291C0.218061 19.8291 0 19.5892 0 19.1095V1.78674C0 1.30701 0.218061 1.06714 0.654183 1.06714H1.85788C2.294 1.06714 2.51206 1.30701 2.51206 1.78674V17.6834H11.1865C11.6663 17.6834 11.9061 17.8796 11.9061 18.2721V19.2403C11.9061 19.6328 11.6663 19.8291 11.1865 19.8291H0.654183Z" fill="white"/>
<path d="M115.139 32.8202C114.943 32.8202 114.846 32.7128 114.846 32.4979V24.7401C114.846 24.5253 114.943 24.4178 115.139 24.4178H117.969C119.098 24.4178 119.914 24.6288 120.418 25.0507C120.926 25.4725 121.18 26.0292 121.18 26.7206C121.18 27.33 120.974 27.8417 120.564 28.2557C120.158 28.6698 119.578 28.9081 118.824 28.9706V28.9823C119.223 29.2792 119.486 29.5057 119.615 29.662C119.744 29.8143 119.889 30.0214 120.049 30.2831L121.373 32.4335C121.533 32.6913 121.498 32.8202 121.267 32.8202H120.599C120.416 32.8202 120.279 32.744 120.189 32.5917L118.971 30.4999C118.795 30.1991 118.543 29.9042 118.215 29.6151C117.887 29.326 117.478 29.1815 116.99 29.1815H115.971V32.4979C115.971 32.7128 115.873 32.8202 115.678 32.8202H115.139ZM115.971 28.2206H117.664C118.426 28.2206 119.012 28.121 119.422 27.9218C119.832 27.7186 120.037 27.2948 120.037 26.6503C120.037 26.1581 119.849 25.8241 119.474 25.6483C119.099 25.4686 118.59 25.3788 117.945 25.3788H115.971V28.2206Z" fill="#6BD96B"/>
<path d="M105.537 32.8202C105.342 32.8202 105.244 32.7128 105.244 32.4979V24.7401C105.244 24.5253 105.342 24.4178 105.537 24.4178H110.664C110.879 24.4178 110.986 24.5057 110.986 24.6815V25.1151C110.986 25.2909 110.879 25.3788 110.664 25.3788H106.369V27.9803H110.313C110.527 27.9803 110.635 28.0682 110.635 28.244V28.6776C110.635 28.8534 110.527 28.9413 110.313 28.9413H106.369V31.8593H110.84C111.055 31.8593 111.162 31.9471 111.162 32.1229V32.5565C111.162 32.7323 111.055 32.8202 110.84 32.8202H105.537Z" fill="#6BD96B"/>
<path d="M94.9514 32.8202C94.7561 32.8202 94.6584 32.7128 94.6584 32.4979V24.7401C94.6584 24.5253 94.7561 24.4178 94.9514 24.4178H95.7014C95.9749 24.4178 96.1702 24.5155 96.2874 24.7108L99.9553 30.8573H99.9788C99.9709 30.701 99.967 30.5448 99.967 30.3885V24.7401C99.967 24.5253 100.065 24.4178 100.26 24.4178H100.799C100.994 24.4178 101.092 24.5253 101.092 24.7401V32.4979C101.092 32.7128 100.994 32.8202 100.799 32.8202H100.283C100.01 32.8202 99.8147 32.7225 99.6975 32.5272L95.7952 26.0057H95.7717C95.7795 26.162 95.7834 26.3182 95.7834 26.4745V32.4979C95.7834 32.7128 95.6858 32.8202 95.4905 32.8202H94.9514Z" fill="#6BD96B"/>
<path d="M83.4281 28.619C83.4281 27.2518 83.7816 26.1815 84.4886 25.4081C85.1957 24.6307 86.1781 24.2421 87.4359 24.2421C88.1898 24.2421 88.8051 24.3729 89.2816 24.6346C89.7582 24.8925 90.1078 25.1971 90.3304 25.5487C90.4672 25.7675 90.4652 25.9257 90.3246 26.0233L89.8851 26.328C89.7406 26.4296 89.5961 26.369 89.4515 26.1464C89.3344 25.9706 89.1136 25.7616 88.7894 25.5194C88.4652 25.2772 88.0336 25.1561 87.4945 25.1561C86.5375 25.1561 85.8207 25.4608 85.3441 26.0702C84.8676 26.6757 84.6293 27.5253 84.6293 28.619C84.6293 29.7128 84.8617 30.5643 85.3265 31.1737C85.7914 31.7792 86.5336 32.0819 87.5531 32.0819C88.0609 32.0819 88.5023 32.0214 88.8773 31.9003C89.2562 31.7753 89.5219 31.6034 89.6742 31.3846V29.8319H87.934C87.7191 29.8319 87.6117 29.744 87.6117 29.5682V29.1346C87.6117 28.9589 87.7191 28.871 87.934 28.871H90.4769C90.6918 28.871 90.7992 28.9589 90.7992 29.1346V31.9003C90.3226 32.2479 89.8461 32.5175 89.3695 32.7089C88.8929 32.9003 88.2679 32.996 87.4945 32.996C86.2054 32.996 85.2054 32.6093 84.4945 31.8358C83.7836 31.0585 83.4281 29.9862 83.4281 28.619Z" fill="#6BD96B"/>
<path d="M78.9009 32.8202C78.7056 32.8202 78.6079 32.7128 78.6079 32.4979V24.7401C78.6079 24.5253 78.7056 24.4178 78.9009 24.4178H79.4399C79.6353 24.4178 79.7329 24.5253 79.7329 24.7401V32.4979C79.7329 32.7128 79.6353 32.8202 79.4399 32.8202H78.9009Z" fill="#6BD96B"/>
<path d="M69.2526 32.1874C69.0456 31.9999 68.9909 31.8358 69.0886 31.6952L69.3933 31.2557C69.4987 31.1034 69.6687 31.1151 69.903 31.2909C70.2116 31.5214 70.5319 31.7108 70.864 31.8593C71.1999 32.0077 71.6062 32.0819 72.0827 32.0819C72.4343 32.0819 72.7312 32.0292 72.9733 31.9237C73.2155 31.8182 73.4089 31.6678 73.5534 31.4725C73.7019 31.2733 73.7761 31.0331 73.7761 30.7518C73.7761 30.5487 73.7448 30.3612 73.6823 30.1893C73.6237 30.0135 73.528 29.8671 73.3952 29.7499C73.2624 29.6327 73.1237 29.5409 72.9792 29.4745C72.7409 29.3651 72.3835 29.2382 71.9069 29.0936C71.4343 28.9491 71.0202 28.7928 70.6647 28.6249C70.3132 28.4569 70.0319 28.2538 69.821 28.0155C69.614 27.7772 69.4753 27.5331 69.405 27.2831C69.3386 27.0292 69.3054 26.7401 69.3054 26.4159C69.3054 25.9198 69.4499 25.4921 69.739 25.1327C70.028 24.7733 70.3815 24.535 70.7995 24.4178C71.2214 24.3007 71.6491 24.2421 72.0827 24.2421C72.5788 24.2421 73.0105 24.3065 73.3776 24.4354C73.7448 24.5643 74.073 24.7323 74.362 24.9393C74.5651 25.0839 74.612 25.2362 74.5026 25.3964L74.2038 25.8241C74.114 25.953 73.9382 25.9257 73.6765 25.7421C73.4772 25.6014 73.2331 25.4706 72.944 25.3495C72.6589 25.2245 72.3757 25.162 72.0944 25.162C71.7351 25.162 71.4362 25.205 71.198 25.2909C70.9597 25.3729 70.7722 25.5135 70.6355 25.7128C70.4987 25.912 70.4304 26.1425 70.4304 26.4042C70.4304 26.5682 70.446 26.7206 70.4772 26.8612C70.5085 26.9979 70.5886 27.1385 70.7175 27.2831C70.8464 27.4276 71.0026 27.5389 71.1862 27.6171C71.4323 27.7225 71.8132 27.8475 72.3288 27.9921C72.8483 28.1327 73.3015 28.3065 73.6882 28.5135C74.0476 28.705 74.3054 28.9061 74.4616 29.1171C74.6218 29.3241 74.7448 29.5507 74.8308 29.7968C74.9206 30.0389 74.9655 30.3124 74.9655 30.6171C74.9655 31.1718 74.823 31.6346 74.5378 32.0057C74.2526 32.3768 73.9147 32.6346 73.5241 32.7792C73.1335 32.9237 72.6433 32.996 72.0534 32.996C71.3464 32.996 70.7605 32.9139 70.2956 32.7499C69.8308 32.5858 69.4831 32.3983 69.2526 32.1874Z" fill="#6BD96B"/>
<path d="M59.9677 32.8202C59.7723 32.8202 59.6747 32.7128 59.6747 32.4979V24.7401C59.6747 24.5253 59.7723 24.4178 59.9677 24.4178H65.0946C65.3094 24.4178 65.4169 24.5057 65.4169 24.6815V25.1151C65.4169 25.2909 65.3094 25.3788 65.0946 25.3788H60.7997V27.9803H64.743C64.9579 27.9803 65.0653 28.0682 65.0653 28.244V28.6776C65.0653 28.8534 64.9579 28.9413 64.743 28.9413H60.7997V31.8593H65.2704C65.4852 31.8593 65.5926 31.9471 65.5926 32.1229V32.5565C65.5926 32.7323 65.4852 32.8202 65.2704 32.8202H59.9677Z" fill="#6BD96B"/>
<path d="M49.3936 32.8202C49.1982 32.8202 49.1006 32.7128 49.1006 32.4979V24.7401C49.1006 24.5253 49.1982 24.4178 49.3936 24.4178H51.5557C53.2119 24.4178 54.3623 24.785 55.0068 25.5194C55.6553 26.2499 55.9795 27.2792 55.9795 28.6073C55.9795 29.9354 55.6553 30.9706 55.0068 31.7128C54.3623 32.451 53.2119 32.8202 51.5557 32.8202H49.3936ZM50.2256 31.8593H51.5029C52.792 31.8593 53.6592 31.5858 54.1045 31.0389C54.5537 30.4921 54.7783 29.6815 54.7783 28.6073C54.7783 27.5331 54.5537 26.7245 54.1045 26.1815C53.6592 25.6385 52.792 25.3671 51.5029 25.3671H50.2256V31.8593Z" fill="#6BD96B"/>
<path d="M32.8392 32.8202C32.5853 32.8202 32.5501 32.6913 32.7337 32.4335L35.5462 28.4843L32.9329 24.8046C32.7494 24.5468 32.7845 24.4178 33.0384 24.4178H33.7591C33.931 24.4178 34.0677 24.494 34.1693 24.6464L36.2259 27.705L38.2826 24.6464C38.3841 24.494 38.5208 24.4178 38.6927 24.4178H39.4134C39.6673 24.4178 39.7025 24.5468 39.5189 24.8046L36.9056 28.4843L39.7181 32.4335C39.9017 32.6913 39.8665 32.8202 39.6126 32.8202H38.8861C38.7142 32.8202 38.5775 32.744 38.4759 32.5917L36.2259 29.2635L33.9759 32.5917C33.8744 32.744 33.7376 32.8202 33.5658 32.8202H32.8392Z" fill="#6BD96B"/>
<path d="M22.7339 29.6151V24.7401C22.7339 24.5253 22.8315 24.4178 23.0269 24.4178H23.5659C23.7612 24.4178 23.8589 24.5253 23.8589 24.7401V29.4393C23.8589 30.5331 24.0132 31.2479 24.3218 31.5839C24.6343 31.9159 25.1421 32.0819 25.8452 32.0819C26.5483 32.0819 27.0542 31.9159 27.3628 31.5839C27.6753 31.2479 27.8315 30.5331 27.8315 29.4393V24.7401C27.8315 24.5253 27.9292 24.4178 28.1245 24.4178H28.6636C28.8589 24.4178 28.9565 24.5253 28.9565 24.7401V29.6151C28.9565 30.8534 28.6714 31.7264 28.1011 32.2343C27.5347 32.7421 26.7827 32.996 25.8452 32.996C24.9077 32.996 24.1538 32.7421 23.5835 32.2343C23.0171 31.7264 22.7339 30.8534 22.7339 29.6151Z" fill="#6BD96B"/>
<path d="M14.8961 35.1112C14.7633 35.0565 14.7301 34.9471 14.7965 34.7831L18.986 24.4061C19.0524 24.2421 19.152 24.1874 19.2848 24.2421L19.5485 24.3475C19.6735 24.3983 19.7028 24.5057 19.6364 24.6698L15.4469 35.0468C15.3805 35.2108 15.2848 35.2675 15.1598 35.2167L14.8961 35.1112Z" fill="#6BD96B"/>
<path d="M10.6678 32.8202C10.4725 32.8202 10.3749 32.7128 10.3749 32.4979V24.7401C10.3749 24.5253 10.4725 24.4178 10.6678 24.4178H11.2069C11.4022 24.4178 11.4999 24.5253 11.4999 24.7401V32.4979C11.4999 32.7128 11.4022 32.8202 11.2069 32.8202H10.6678Z" fill="#6BD96B"/>
<path d="M0 29.6151V24.7401C0 24.5253 0.0976562 24.4178 0.292969 24.4178H0.832031C1.02734 24.4178 1.125 24.5253 1.125 24.7401V29.4393C1.125 30.5331 1.2793 31.2479 1.58789 31.5839C1.90039 31.9159 2.4082 32.0819 3.11133 32.0819C3.81445 32.0819 4.32031 31.9159 4.62891 31.5839C4.94141 31.2479 5.09766 30.5331 5.09766 29.4393V24.7401C5.09766 24.5253 5.19531 24.4178 5.39062 24.4178H5.92969C6.125 24.4178 6.22266 24.5253 6.22266 24.7401V29.6151C6.22266 30.8534 5.9375 31.7264 5.36719 32.2343C4.80078 32.7421 4.04883 32.996 3.11133 32.996C2.17383 32.996 1.41992 32.7421 0.849609 32.2343C0.283203 31.7264 0 30.8534 0 29.6151Z" fill="#6BD96B"/>
</svg>
