<svg width="28" height="25" viewBox="0 0 28 25" fill="none" xmlns="http://www.w3.org/2000/svg">
<path d="M9 5.00023C8.99996 4.05415 9.26833 3.12747 9.77395 2.32783C10.2796 1.52819 11.0017 0.888413 11.8564 0.48281C12.7111 0.0772078 13.6634 -0.0775728 14.6026 0.0364472C15.5418 0.150467 16.4293 0.528608 17.1622 1.12695C17.895 1.72529 18.4431 2.51927 18.7427 3.41666C19.0423 4.31405 19.0811 5.27803 18.8547 6.19662C18.6283 7.11521 18.1459 7.95071 17.4636 8.60608C16.7812 9.26144 15.927 9.70977 15 9.89898V19.0002C15 19.2655 14.8946 19.5198 14.7071 19.7073C14.5196 19.8949 14.2652 20.0002 14 20.0002C13.7348 20.0002 13.4804 19.8949 13.2929 19.7073C13.1054 19.5198 13 19.2655 13 19.0002V9.89898C11.8714 9.66741 10.8572 9.05364 10.1285 8.16122C9.39981 7.2688 9.00123 6.15236 9 5.00023ZM25.25 15.324C23.7175 14.4565 21.61 13.7902 19.1537 13.3965C19.0238 13.376 18.8911 13.3812 18.7632 13.412C18.6353 13.4428 18.5148 13.4984 18.4084 13.5758C18.302 13.6531 18.2119 13.7507 18.1432 13.8629C18.0746 13.9751 18.0286 14.0997 18.0081 14.2296C17.9876 14.3595 17.9929 14.4922 18.0236 14.6201C18.0544 14.748 18.1101 14.8686 18.1874 14.975C18.2648 15.0813 18.3623 15.1715 18.4745 15.2401C18.5867 15.3088 18.7113 15.3547 18.8412 15.3752C21.0337 15.7277 22.9662 16.329 24.2687 17.069C25.375 17.6877 26 18.3927 26 19.0002C26 20.6702 21.435 23.0002 14 23.0002C6.565 23.0002 2 20.6702 2 19.0002C2 18.3927 2.625 17.6877 3.73125 17.064C5.03875 16.324 6.96625 15.7227 9.15875 15.3702C9.29144 15.3529 9.41929 15.3091 9.53475 15.2415C9.65021 15.1738 9.75091 15.0837 9.8309 14.9764C9.91089 14.8691 9.96853 14.7469 10.0004 14.6169C10.0323 14.487 10.0378 14.352 10.0165 14.2198C9.99528 14.0877 9.94773 13.9612 9.87669 13.8478C9.80566 13.7344 9.71259 13.6364 9.60299 13.5596C9.4934 13.4829 9.36951 13.4289 9.23866 13.4008C9.10782 13.3728 8.97268 13.3713 8.84125 13.3965C6.385 13.7902 4.2775 14.4565 2.745 15.324C0.47625 16.609 0 18.0327 0 19.0002C0 22.8977 7.21375 25.0002 14 25.0002C20.7863 25.0002 28 22.8977 28 19.0002C28 18.0327 27.5238 16.609 25.25 15.324Z" fill="#6BD96B"/>
</svg>
