<svg width="32" height="32" viewBox="0 0 32 32" fill="none" xmlns="http://www.w3.org/2000/svg">
<path d="M31.225 2.36679C31.188 1.7573 30.9292 1.18244 30.4974 0.750668C30.0656 0.318898 29.4908 0.0600772 28.8813 0.0230382C26.9156 -0.0941493 21.8922 0.085538 17.7235 4.25273L16.9813 5.00429H7.86721C7.53764 5.00243 7.211 5.06612 6.90628 5.19166C6.60155 5.3172 6.32483 5.50208 6.09221 5.73554L0.732835 11.098C0.40416 11.4265 0.173526 11.84 0.0668169 12.2923C-0.0398919 12.7445 -0.0184526 13.2176 0.128729 13.6583C0.27591 14.099 0.543009 14.49 0.900049 14.7874C1.25709 15.0848 1.68994 15.2767 2.15002 15.3418L8.16096 16.1809L15.0688 23.0887L15.9078 29.1027C15.9724 29.5628 16.1643 29.9957 16.4619 30.3525C16.7596 30.7092 17.1511 30.9756 17.5922 31.1215C17.8491 31.2073 18.1182 31.2511 18.3891 31.2512C18.7171 31.2518 19.0419 31.1875 19.345 31.062C19.648 30.9365 19.9232 30.7523 20.1547 30.5199L25.5172 25.1605C25.7507 24.9279 25.9355 24.6512 26.0611 24.3465C26.1866 24.0417 26.2503 23.7151 26.2485 23.3855V14.2715L26.9938 13.5262C31.1625 9.35741 31.3422 4.33398 31.225 2.36679ZM7.86721 7.50429H14.4813L8.30471 13.6793L2.49846 12.8699L7.86721 7.50429ZM19.4938 6.02773C20.6949 4.81919 22.1401 3.88086 23.7328 3.27541C25.3255 2.66996 27.0291 2.41133 28.7297 2.51679C28.8392 4.21832 28.5833 5.92358 27.9791 7.51798C27.3748 9.11238 26.4363 10.559 25.2266 11.7605L16.2485 20.7355L10.5172 15.0043L19.4938 6.02773ZM23.7485 23.3855L18.3844 28.7543L17.5735 22.9465L23.7485 16.7715V23.3855ZM12.161 24.8699C11.4578 26.4105 9.10627 30.0043 2.49846 30.0043C2.16694 30.0043 1.849 29.8726 1.61458 29.6382C1.38016 29.4038 1.24846 29.0858 1.24846 28.7543C1.24846 22.1465 4.84221 19.7949 6.38283 19.0902C6.53221 19.0221 6.69355 18.9841 6.85763 18.9783C7.0217 18.9725 7.18531 18.9991 7.33911 19.0566C7.4929 19.114 7.63388 19.2012 7.75398 19.3132C7.87408 19.4251 7.97096 19.5596 8.03908 19.709C8.10721 19.8584 8.14524 20.0197 8.15102 20.1838C8.15679 20.3478 8.13019 20.5115 8.07273 20.6652C8.01527 20.819 7.92809 20.96 7.81615 21.0801C7.70421 21.2002 7.56971 21.2971 7.42033 21.3652C6.41565 21.823 4.19846 23.2965 3.80783 27.4449C7.95627 27.0543 9.43283 24.8371 9.88752 23.8324C9.95565 23.683 10.0525 23.5485 10.1726 23.4366C10.2927 23.3247 10.4337 23.2375 10.5875 23.18C10.7413 23.1226 10.9049 23.096 11.069 23.1017C11.2331 23.1075 11.3944 23.1455 11.5438 23.2137C11.6932 23.2818 11.8276 23.3787 11.9396 23.4988C12.0515 23.6189 12.1387 23.7598 12.1962 23.9136C12.2536 24.0674 12.2802 24.231 12.2745 24.3951C12.2687 24.5592 12.2306 24.7205 12.1625 24.8699H12.161Z" fill="#D9901B"/>
</svg>
