<svg width="25" height="25" viewBox="0 0 25 25" fill="none" xmlns="http://www.w3.org/2000/svg">
<path d="M24.0022 4.86011e-09H16.0022C15.8491 -1.50922e-05 15.698 0.0351421 15.5606 0.10276C15.4232 0.170379 15.3031 0.268651 15.2097 0.39L7.2097 10.7913L6.0022 9.58625C5.81645 9.4003 5.59588 9.25278 5.35308 9.15213C5.11028 9.05148 4.85003 8.99968 4.5872 8.99968C4.32437 8.99968 4.06411 9.05148 3.82132 9.15213C3.57852 9.25278 3.35794 9.4003 3.1722 9.58625L1.58595 11.1737C1.40018 11.3595 1.25282 11.58 1.15228 11.8227C1.05175 12.0653 1 12.3254 1 12.5881C1 12.8508 1.05175 13.1109 1.15228 13.3536C1.25282 13.5963 1.40018 13.8168 1.58595 14.0025L4.08595 16.5025L0.585948 20.0025C0.400182 20.1882 0.252823 20.4087 0.152285 20.6514C0.0517467 20.8941 0 21.1542 0 21.4169C0 21.6796 0.0517467 21.9397 0.152285 22.1823C0.252823 22.425 0.400182 22.6455 0.585948 22.8312L2.1722 24.4163C2.54723 24.791 3.05574 25.0016 3.58595 25.0016C4.11615 25.0016 4.62466 24.791 4.9997 24.4163L8.4997 20.9163L10.9997 23.4163C11.1854 23.6022 11.406 23.7497 11.6488 23.8504C11.8916 23.951 12.1519 24.0028 12.4147 24.0028C12.6775 24.0028 12.9378 23.951 13.1806 23.8504C13.4234 23.7497 13.644 23.6022 13.8297 23.4163L15.4159 21.8288C15.6017 21.643 15.7491 21.4225 15.8496 21.1798C15.9502 20.9372 16.0019 20.6771 16.0019 20.4144C16.0019 20.1517 15.9502 19.8916 15.8496 19.6489C15.7491 19.4062 15.6017 19.1857 15.4159 19L14.2109 17.795L24.6122 9.795C24.7339 9.70133 24.8324 9.58089 24.9 9.44302C24.9676 9.30515 25.0026 9.15356 25.0022 9V1C25.0022 0.734784 24.8968 0.48043 24.7093 0.292893C24.5218 0.105357 24.2674 4.86011e-09 24.0022 4.86011e-09ZM3.58845 23L2.0022 21.415L5.5022 17.915L7.0872 19.5L3.58845 23ZM12.4147 22L3.0022 12.5888L4.5897 11L14.0022 20.4137L12.4147 22ZM23.0022 8.5075L12.7847 16.3675L11.4172 15L17.7097 8.7075C17.8972 8.51986 18.0024 8.26543 18.0023 8.00018C18.0022 7.73494 17.8967 7.4806 17.7091 7.29313C17.5214 7.10565 17.267 7.00039 17.0018 7.00051C16.7365 7.00063 16.4822 7.10611 16.2947 7.29375L10.0022 13.585L8.63595 12.2175L16.4947 2H23.0022V8.5075Z" fill="#6BD96B"/>
</svg>
