<svg width="33" height="33" viewBox="0 0 33 33" fill="none" xmlns="http://www.w3.org/2000/svg">
<path d="M20.0345 13.7845C20.0345 14.1161 19.9028 14.434 19.6684 14.6684C19.434 14.9028 19.1161 15.0345 18.7845 15.0345H15.0345V18.7845C15.0345 19.1161 14.9028 19.434 14.6684 19.6684C14.434 19.9028 14.1161 20.0345 13.7845 20.0345C13.453 20.0345 13.1351 19.9028 12.9007 19.6684C12.6662 19.434 12.5345 19.1161 12.5345 18.7845V15.0345H8.78454C8.45302 15.0345 8.13507 14.9028 7.90065 14.6684C7.66623 14.434 7.53454 14.1161 7.53454 13.7845C7.53454 13.453 7.66623 13.1351 7.90065 12.9007C8.13507 12.6662 8.45302 12.5345 8.78454 12.5345H12.5345V8.78454C12.5345 8.45302 12.6662 8.13507 12.9007 7.90065C13.1351 7.66623 13.453 7.53454 13.7845 7.53454C14.1161 7.53454 14.434 7.66623 14.6684 7.90065C14.9028 8.13507 15.0345 8.45302 15.0345 8.78454V12.5345H18.7845C19.1161 12.5345 19.434 12.6662 19.6684 12.9007C19.9028 13.1351 20.0345 13.453 20.0345 13.7845ZM32.1689 32.1689C32.0528 32.2851 31.915 32.3773 31.7632 32.4402C31.6115 32.5031 31.4488 32.5355 31.2845 32.5355C31.1203 32.5355 30.9576 32.5031 30.8059 32.4402C30.6541 32.3773 30.5163 32.2851 30.4002 32.1689L22.5783 24.3455C19.856 26.613 16.3642 27.7437 12.8294 27.5024C9.29466 27.2611 5.989 25.6663 3.60012 23.0498C1.21124 20.4333 -0.076942 16.9965 0.00355784 13.4544C0.0840577 9.9123 1.52704 6.5376 4.03232 4.03232C6.5376 1.52704 9.9123 0.0840577 13.4544 0.00355784C16.9965 -0.076942 20.4333 1.21124 23.0498 3.60012C25.6663 5.989 27.2611 9.29466 27.5024 12.8294C27.7437 16.3642 26.613 19.856 24.3455 22.5783L32.1689 30.4002C32.2851 30.5163 32.3773 30.6541 32.4402 30.8059C32.5031 30.9576 32.5355 31.1203 32.5355 31.2845C32.5355 31.4488 32.5031 31.6115 32.4402 31.7632C32.3773 31.915 32.2851 32.0528 32.1689 32.1689ZM13.7845 25.0345C16.0096 25.0345 18.1847 24.3747 20.0347 23.1386C21.8848 21.9024 23.3267 20.1454 24.1782 18.0897C25.0297 16.0341 25.2525 13.7721 24.8184 11.5898C24.3843 9.40749 23.3128 7.40293 21.7395 5.82959C20.1661 4.25624 18.1616 3.18479 15.9793 2.7507C13.797 2.31662 11.535 2.53941 9.47935 3.39089C7.42368 4.24238 5.66667 5.68432 4.4305 7.53437C3.19434 9.38442 2.53454 11.5595 2.53454 13.7845C2.53784 16.7672 3.72417 19.6268 5.83324 21.7358C7.94231 23.8449 10.8019 25.0312 13.7845 25.0345Z" fill="#E2D118"/>
</svg>
